PathFileType	4	(X/Y/Z)	Apose_0-50.trc
DataRate	CameraRate	NumFrames	NumMarkers	Units	OrigDataRate	OrigDataStartFrame	OrigNumFrames
30	30	5	22	m	30	30	50
Frame#	Time	Hip			RHip			RKnee			RAnkle			RBigToe			RSmallToe			RHeel			LHip			LKnee			LAnkle			LBigToe			LSmallToe			LHeel			Neck			Head			Nose			RShoulder			RElbow			RWrist			LShoulder			LElbow			LWrist		
		X1	Y1	Z1	X2	Y2	Z2	X3	Y3	Z3	X4	Y4	Z4	X5	Y5	Z5	X6	Y6	Z6	X7	Y7	Z7	X8	Y8	Z8	X9	Y9	Z9	X10	Y10	Z10	X11	Y11	Z11	X12	Y12	Z12	X13	Y13	Z13	X14	Y14	Z14	X15	Y15	Z15	X16	Y16	Z16	X17	Y17	Z17	X18	Y18	Z18	X19	Y19	Z19	X20	Y20	Z20	X21	Y21	Z21	X22	Y22	Z22
31	1.0333333333333334	0.03531452991780004	0.9214039329868545	0.3553732356107578	0.026528807895227945	0.8813289691447947	0.4622099166485892	0.004245524134159561	0.5061534683649909	0.495668339898705	-0.0036197374652374055	0.10963972906841027	0.5139996435269958	0.20459133987306458	0.02800267856796155	0.5693259945620237	0.1483773128875821	0.03051713640151126	0.6286014370038714	-0.033705004106035996	0.035729077201943224	0.49594688716716184	0.02864287203329072	0.8799763205364447	0.2424747751329157	0.01089742390821268	0.5085475834239007	0.2243296791419417	0.00843826784759877	0.11764680846146748	0.21013451938009942	0.221720421744581	0.04915648370996893	0.18645158661944305	0.16686189654114106	0.03354725635847281	0.12448634597456623	-0.04996237542898498	0.04196851088930444	0.21071055494118296	0.04725200174159375	1.5724457719234781	0.3469855353214826	0.2377426594395783	1.7627175623654228	0.33617143817632245	0.22892706183796888	1.5826485247122954	0.3277077136766873	0.019304490254332316	1.4913488160321078	0.5309697323539899	0.07278509808098846	1.2364939175961163	0.7151924492500824	0.11872422242171152	1.0460856148143214	0.8861053371462827	0.013491300532991198	1.4811489372994526	0.14443951937396743	0.02941865186121321	1.226547857602263	0.0007036275488300855	0.07512622248231987	1.0163457349034284	-0.15051476272751274
32	1.0666666666666667	0.03580536474029512	0.9208560330661483	0.35334482850717586	0.02653761581724384	0.8805751255379131	0.4597641695195431	0.003894020700952225	0.5080952066137157	0.4951718487014268	-0.0046750213036144276	0.11098138601494963	0.5140780625753936	0.19442980809577068	0.03251629541455349	0.5601154248837668	0.14643485574310877	0.030290773906451105	0.6294060169388709	-0.03487348734275575	0.03608887455076619	0.49552546189988755	0.028693502130494295	0.8801729393551251	0.24273099375161725	0.011691043495897316	0.5071798498248996	0.22367606445655636	0.0012989599908341612	0.12407624104117365	0.20846231612428728	0.221170041210059	0.048060889091094655	0.1859004196817378	0.16666708768619376	0.03472992881133818	0.12523238340207324	-0.0512326553729366	0.03932242939920388	0.21017227432575408	0.04802517918419288	1.573461884452544	0.34700183857698225	0.23729963528291134	1.7620310322951631	0.3381122174425795	0.22710808457103	1.581777001117005	0.32782492848938066	0.020322501382344173	1.492384671519009	0.5300869449620594	0.07232264373432803	1.235517989093646	0.7168007276935144	0.12022807563813095	1.0448971777788034	0.8868751583135496	0.015479855636649721	1.4812414410640546	0.1453228967490005	0.03170991046628389	1.2262283966124077	0.0005501993207626981	0.07761943493502851	1.0182878473501236	-0.15023787576309022
33	1.1	0.03511054315759967	0.921358889121509	0.3532226845835659	0.028269743102680753	0.8816585646854459	0.4604749374791454	0.004799395101483817	0.5096930231581545	0.49578471046850764	-0.004407648487535462	0.1106010534990433	0.5147590221223779	0.2050235859947851	0.028072759807326757	0.5694382455414158	0.1472404392239303	0.030273648553828404	0.6300977624280134	-0.0366585350497772	0.03881367654237801	0.49609728618002846	0.028716346074566416	0.8805625169836709	0.24258539216369537	0.011445361622826913	0.5076796406995076	0.2245797073719015	0.0023984080516655792	0.12491415133242265	0.2085408890306623	0.22156196361821576	0.049195026179119604	0.18734145674141445	0.16653085396986209	0.033510785663688966	0.12568728317700495	-0.04273167366495089	0.0590461585770236	0.2025141708949951	0.04728493968881659	1.5733705553907709	0.3460830157616771	0.23709304062220962	1.7624790059089521	0.33833144257785314	0.22673947152036178	1.5825217388966457	0.3279499809260541	0.020546996426027923	1.4920454232537221	0.5295431919997725	0.07551185045377196	1.2342437622572489	0.7153961508856015	0.12045183544022779	1.0440651241078782	0.8866235652585246	0.015102536755601489	1.481269585111541	0.14396667362560295	0.028737751608206397	1.2255448931658222	0.0007302678151050593	0.07867927659741535	1.0246226181251257	-0.1497731847209182
34	1.1333333333333333	0.036247618289080914	0.9189283326102864	0.35280691341610715	0.028462467400143267	0.8804179801864203	0.4603397269649019	0.004867071228709024	0.5089905817276931	0.4950428684068188	-0.00589154580140724	0.11019686915457183	0.5147184625113966	0.20327991521396208	0.037959367645585815	0.5693821176887854	0.14584630798422574	0.03149003041014246	0.6292255847779811	-0.03647121389628941	0.03546499526974874	0.4960954906845528	0.02892167437295595	0.8797602006166486	0.2417692166691411	0.012232583335882473	0.5062776229855571	0.22345736789123674	0.002540229358516912	0.12434168507907595	0.2077112930644396	0.22106868339367544	0.04831812629568472	0.18657560019617117	0.16698041399889432	0.033793802811585956	0.12543830572935621	-0.051387453652199315	0.03953560260042422	0.210900390829397	0.04809618746553245	1.573642007386501	0.34684025691565534	0.3028536966797572	1.7720944712002373	0.274688146103325	0.22866312555443558	1.5844780170231345	0.32969593088296717	0.021065852195631025	1.4923303089945528	0.5293519137888695	0.054739251997924454	1.2321891883566958	0.7104935813647173	0.12104656222557693	1.0441897818364512	0.8864455148385394	0.015444754367009487	1.4822749587932005	0.1449884586705052	0.02749325541010243	1.2247803881329156	-0.0005307617326957601	0.07895683498994394	1.0237684098951016	-0.15106217512162204
35	1.1666666666666667	0.03582527080407335	0.9202823501896232	0.353350459458632	0.02864160318893826	0.8806527804570085	0.46066100796283815	0.0047278199034263	0.5085702043796468	0.4947295380035736	-0.006142466667985393	0.11144246915828335	0.5151199377494119	0.20809247675335626	0.026539702403837368	0.5676624532229003	0.1479312595060354	0.02964948929023148	0.6297687230688949	-0.03463536792457812	0.03648564626228315	0.4948786219622422	0.028088276580989485	0.8805395414348269	0.24312373423510317	0.012999529593961164	0.5084310046984348	0.22303376768418307	0.000764823836949973	0.1255037685548833	0.20961594094328392	0.2206050714731053	0.049086525253555426	0.1884337310283803	0.167656527770719	0.03515041826434505	0.12597838903333877	-0.04459277528619466	0.0596001744286472	0.20369080211807075	0.04700565630427534	1.5737368611655385	0.3461126395077021	0.2951186358115402	1.773863256400381	0.27810515656301416	0.22891596298411335	1.5863610125920868	0.32963966667311967	0.021036066308726845	1.4920730932785555	0.5292200759134491	0.057655928704365436	1.2319424491567985	0.713055308113271	0.12356484360165998	1.0452939184504273	0.886978502014868	0.015775583540634273	1.4817622813887579	0.1448944275383652	0.02683591789313584	1.2245109341427525	0.00033980283654216865	0.07717008602985932	1.0244611896298272	-0.14926349166719557
